<?xml version="1.0" encoding="UTF-8" standalone="no"?>
<!DOCTYPE svg PUBLIC "-//W3C//DTD SVG 1.1//EN"
 "http://www.w3.org/Graphics/SVG/1.1/DTD/svg11.dtd">
<!-- Generated by graphviz version 2.40.1 (20161225.0304)
 -->
<!-- Title: %3 Pages: 1 -->
<svg width="241pt" height="476pt"
 viewBox="0.00 0.00 241.00 476.00" xmlns="http://www.w3.org/2000/svg" xmlns:xlink="http://www.w3.org/1999/xlink">
<g id="graph0" class="graph" transform="scale(1 1) rotate(0) translate(4 472)">
<title>%3</title>
<polygon fill="#ffffff" stroke="transparent" points="-4,4 -4,-472 237,-472 237,4 -4,4"/>
<!-- bayer画像 -->
<g id="node1" class="node">
<title>bayer画像</title>
<text text-anchor="middle" x="116.5" y="-444.4" font-family="sans-serif" font-size="22.00" fill="#000000">bayer画像</text>
</g>
<!-- ブラックレベル補正 -->
<g id="node2" class="node">
<title>ブラックレベル補正</title>
<polygon fill="none" stroke="#000000" points="222.5,-396 10.5,-396 10.5,-360 222.5,-360 222.5,-396"/>
<text text-anchor="middle" x="116.5" y="-372.4" font-family="sans-serif" font-size="22.00" fill="#000000">ブラックレベル補正</text>
</g>
<!-- bayer画像&#45;&gt;ブラックレベル補正 -->
<g id="edge1" class="edge">
<title>bayer画像&#45;&gt;ブラックレベル補正</title>
<path fill="none" stroke="#000000" d="M116.5,-431.8314C116.5,-424.131 116.5,-414.9743 116.5,-406.4166"/>
<polygon fill="#000000" stroke="#000000" points="120.0001,-406.4132 116.5,-396.4133 113.0001,-406.4133 120.0001,-406.4132"/>
</g>
<!-- ホワイトバランス補正 -->
<g id="node3" class="node">
<title>ホワイトバランス補正</title>
<polygon fill="none" stroke="#000000" points="233,-324 0,-324 0,-288 233,-288 233,-324"/>
<text text-anchor="middle" x="116.5" y="-300.4" font-family="sans-serif" font-size="22.00" fill="#000000">ホワイトバランス補正</text>
</g>
<!-- ブラックレベル補正&#45;&gt;ホワイトバランス補正 -->
<g id="edge2" class="edge">
<title>ブラックレベル補正&#45;&gt;ホワイトバランス補正</title>
<path fill="none" stroke="#000000" d="M116.5,-359.8314C116.5,-352.131 116.5,-342.9743 116.5,-334.4166"/>
<polygon fill="#000000" stroke="#000000" points="120.0001,-334.4132 116.5,-324.4133 113.0001,-334.4133 120.0001,-334.4132"/>
</g>
<!-- デモザイク -->
<g id="node4" class="node">
<title>デモザイク</title>
<polygon fill="none" stroke="#000000" points="179,-252 54,-252 54,-216 179,-216 179,-252"/>
<text text-anchor="middle" x="116.5" y="-228.4" font-family="sans-serif" font-size="22.00" fill="#000000">デモザイク</text>
</g>
<!-- ホワイトバランス補正&#45;&gt;デモザイク -->
<g id="edge3" class="edge">
<title>ホワイトバランス補正&#45;&gt;デモザイク</title>
<path fill="none" stroke="#000000" d="M116.5,-287.8314C116.5,-280.131 116.5,-270.9743 116.5,-262.4166"/>
<polygon fill="#000000" stroke="#000000" points="120.0001,-262.4132 116.5,-252.4133 113.0001,-262.4133 120.0001,-262.4132"/>
</g>
<!-- カラーマトリクス補正 -->
<g id="node5" class="node">
<title>カラーマトリクス補正</title>
<polygon fill="none" stroke="#000000" points="233,-180 0,-180 0,-144 233,-144 233,-180"/>
<text text-anchor="middle" x="116.5" y="-156.4" font-family="sans-serif" font-size="22.00" fill="#000000">カラーマトリクス補正</text>
</g>
<!-- デモザイク&#45;&gt;カラーマトリクス補正 -->
<g id="edge4" class="edge">
<title>デモザイク&#45;&gt;カラーマトリクス補正</title>
<path fill="none" stroke="#000000" d="M116.5,-215.8314C116.5,-208.131 116.5,-198.9743 116.5,-190.4166"/>
<polygon fill="#000000" stroke="#000000" points="120.0001,-190.4132 116.5,-180.4133 113.0001,-190.4133 120.0001,-190.4132"/>
</g>
<!-- ガンマ補正 -->
<g id="node6" class="node">
<title>ガンマ補正</title>
<polygon fill="none" stroke="#000000" points="179,-108 54,-108 54,-72 179,-72 179,-108"/>
<text text-anchor="middle" x="116.5" y="-84.4" font-family="sans-serif" font-size="22.00" fill="#000000">ガンマ補正</text>
</g>
<!-- カラーマトリクス補正&#45;&gt;ガンマ補正 -->
<g id="edge5" class="edge">
<title>カラーマトリクス補正&#45;&gt;ガンマ補正</title>
<path fill="none" stroke="#000000" d="M116.5,-143.8314C116.5,-136.131 116.5,-126.9743 116.5,-118.4166"/>
<polygon fill="#000000" stroke="#000000" points="120.0001,-118.4132 116.5,-108.4133 113.0001,-118.4133 120.0001,-118.4132"/>
</g>
<!-- フルカラー画像 -->
<g id="node7" class="node">
<title>フルカラー画像</title>
<text text-anchor="middle" x="116.5" y="-12.4" font-family="sans-serif" font-size="22.00" fill="#000000">フルカラー画像</text>
</g>
<!-- ガンマ補正&#45;&gt;フルカラー画像 -->
<g id="edge6" class="edge">
<title>ガンマ補正&#45;&gt;フルカラー画像</title>
<path fill="none" stroke="#000000" d="M116.5,-71.8314C116.5,-64.131 116.5,-54.9743 116.5,-46.4166"/>
<polygon fill="#000000" stroke="#000000" points="120.0001,-46.4132 116.5,-36.4133 113.0001,-46.4133 120.0001,-46.4132"/>
</g>
</g>
</svg>
