<?xml version="1.0" encoding="UTF-8" standalone="no"?>
<!DOCTYPE svg PUBLIC "-//W3C//DTD SVG 1.1//EN"
 "http://www.w3.org/Graphics/SVG/1.1/DTD/svg11.dtd">
<!-- Generated by graphviz version 2.40.1 (20161225.0304)
 -->
<!-- Title: %3 Pages: 1 -->
<svg width="224pt" height="197pt"
 viewBox="0.00 0.00 224.00 197.25" xmlns="http://www.w3.org/2000/svg" xmlns:xlink="http://www.w3.org/1999/xlink">
<g id="graph0" class="graph" transform="scale(1 1) rotate(0) translate(4 193.2548)">
<title>%3</title>
<polygon fill="#ffffff" stroke="transparent" points="-4,4 -4,-193.2548 220,-193.2548 220,4 -4,4"/>
<!-- コンパイル -->
<g id="node1" class="node">
<title>コンパイル</title>
<ellipse fill="#d3d3d3" stroke="#d3d3d3" cx="108" cy="-94.6274" rx="88.2768" ry="22.7556"/>
<text text-anchor="middle" x="108" y="-89.0274" font-family="sans-serif" font-size="22.00" fill="#000000">コンパイル</text>
</g>
<!-- Javaクラスファイル -->
<g id="node3" class="node">
<title>Javaクラスファイル</title>
<polygon fill="none" stroke="#000000" points="216,-36 0,-36 0,0 216,0 216,-36"/>
<text text-anchor="middle" x="108" y="-12.4" font-family="sans-serif" font-size="22.00" fill="#000000">Javaクラスファイル</text>
</g>
<!-- コンパイル&#45;&gt;Javaクラスファイル -->
<g id="edge2" class="edge">
<title>コンパイル&#45;&gt;Javaクラスファイル</title>
<path fill="none" stroke="#000000" d="M108,-71.6367C108,-63.7015 108,-54.7165 108,-46.4005"/>
<polygon fill="#000000" stroke="#000000" points="111.5001,-46.3541 108,-36.3542 104.5001,-46.3542 111.5001,-46.3541"/>
</g>
<!-- Javaソースコード -->
<g id="node2" class="node">
<title>Javaソースコード</title>
<polygon fill="none" stroke="#000000" points="199,-189.2548 11,-189.2548 11,-153.2548 205,-153.2548 205,-183.2548 199,-189.2548"/>
<polyline fill="none" stroke="#000000" points="199,-189.2548 199,-183.2548 "/>
<polyline fill="none" stroke="#000000" points="205,-183.2548 199,-183.2548 "/>
<text text-anchor="middle" x="108" y="-165.6548" font-family="sans-serif" font-size="22.00" fill="#000000">Javaソースコード</text>
</g>
<!-- Javaソースコード&#45;&gt;コンパイル -->
<g id="edge1" class="edge">
<title>Javaソースコード&#45;&gt;コンパイル</title>
<path fill="none" stroke="#000000" d="M108,-153.0952C108,-145.3972 108,-136.1817 108,-127.3683"/>
<polygon fill="#000000" stroke="#000000" points="111.5001,-127.3217 108,-117.3217 104.5001,-127.3217 111.5001,-127.3217"/>
</g>
</g>
</svg>
