<?xml version="1.0" encoding="UTF-8" standalone="no"?>
<!DOCTYPE svg PUBLIC "-//W3C//DTD SVG 1.1//EN"
 "http://www.w3.org/Graphics/SVG/1.1/DTD/svg11.dtd">
<!-- Generated by graphviz version 2.40.1 (20161225.0304)
 -->
<!-- Title: %3 Pages: 1 -->
<svg width="170pt" height="216pt"
 viewBox="0.00 0.00 170.00 215.76" xmlns="http://www.w3.org/2000/svg" xmlns:xlink="http://www.w3.org/1999/xlink">
<g id="graph0" class="graph" transform="scale(1 1) rotate(0) translate(4 211.7645)">
<title>%3</title>
<polygon fill="#ffffff" stroke="transparent" points="-4,4 -4,-211.7645 166,-211.7645 166,4 -4,4"/>
<!-- * -->
<g id="node1" class="node">
<title>*</title>
<ellipse fill="none" stroke="#000000" cx="99" cy="-185.1371" rx="27" ry="22.7556"/>
<text text-anchor="middle" x="99" y="-179.5371" font-family="sans-serif" font-size="22.00" fill="#000000">*</text>
</g>
<!-- + -->
<g id="node2" class="node">
<title>+</title>
<ellipse fill="none" stroke="#000000" cx="63" cy="-103.8823" rx="27" ry="22.7556"/>
<text text-anchor="middle" x="63" y="-98.2823" font-family="sans-serif" font-size="22.00" fill="#000000">+</text>
</g>
<!-- *&#45;&gt;+ -->
<g id="edge1" class="edge">
<title>*&#45;&gt;+</title>
<path fill="none" stroke="#000000" d="M89.5414,-163.7883C85.6041,-154.9015 80.957,-144.4125 76.6606,-134.7153"/>
<polygon fill="#000000" stroke="#000000" points="79.7712,-133.0956 72.5204,-125.3705 73.3712,-135.9312 79.7712,-133.0956"/>
</g>
<!-- 3 -->
<g id="node5" class="node">
<title>3</title>
<ellipse fill="none" stroke="#000000" cx="135" cy="-103.8823" rx="27" ry="22.7556"/>
<text text-anchor="middle" x="135" y="-98.2823" font-family="sans-serif" font-size="22.00" fill="#000000">3</text>
</g>
<!-- *&#45;&gt;3 -->
<g id="edge4" class="edge">
<title>*&#45;&gt;3</title>
<path fill="none" stroke="#000000" d="M108.4586,-163.7883C112.3959,-154.9015 117.043,-144.4125 121.3394,-134.7153"/>
<polygon fill="#000000" stroke="#000000" points="124.6288,-135.9312 125.4796,-125.3705 118.2288,-133.0956 124.6288,-135.9312"/>
</g>
<!-- 1 -->
<g id="node3" class="node">
<title>1</title>
<ellipse fill="none" stroke="#000000" cx="27" cy="-22.6274" rx="27" ry="22.7556"/>
<text text-anchor="middle" x="27" y="-17.0274" font-family="sans-serif" font-size="22.00" fill="#000000">1</text>
</g>
<!-- +&#45;&gt;1 -->
<g id="edge2" class="edge">
<title>+&#45;&gt;1</title>
<path fill="none" stroke="#000000" d="M53.5414,-82.5335C49.6041,-73.6467 44.957,-63.1577 40.6606,-53.4604"/>
<polygon fill="#000000" stroke="#000000" points="43.7712,-51.8408 36.5204,-44.1157 37.3712,-54.6763 43.7712,-51.8408"/>
</g>
<!-- 2 -->
<g id="node4" class="node">
<title>2</title>
<ellipse fill="none" stroke="#000000" cx="99" cy="-22.6274" rx="27" ry="22.7556"/>
<text text-anchor="middle" x="99" y="-17.0274" font-family="sans-serif" font-size="22.00" fill="#000000">2</text>
</g>
<!-- +&#45;&gt;2 -->
<g id="edge3" class="edge">
<title>+&#45;&gt;2</title>
<path fill="none" stroke="#000000" d="M72.4586,-82.5335C76.3959,-73.6467 81.043,-63.1577 85.3394,-53.4604"/>
<polygon fill="#000000" stroke="#000000" points="88.6288,-54.6763 89.4796,-44.1157 82.2288,-51.8408 88.6288,-54.6763"/>
</g>
</g>
</svg>
