<?xml version="1.0" encoding="UTF-8" standalone="no"?>
<!DOCTYPE svg PUBLIC "-//W3C//DTD SVG 1.1//EN"
 "http://www.w3.org/Graphics/SVG/1.1/DTD/svg11.dtd">
<!-- Generated by graphviz version 2.40.1 (20161225.0304)
 -->
<!-- Title: %3 Pages: 1 -->
<svg width="171pt" height="216pt"
 viewBox="0.00 0.00 171.00 215.76" xmlns="http://www.w3.org/2000/svg" xmlns:xlink="http://www.w3.org/1999/xlink">
<g id="graph0" class="graph" transform="scale(1 1) rotate(0) translate(4 211.7645)">
<title>%3</title>
<polygon fill="#ffffff" stroke="transparent" points="-4,4 -4,-211.7645 167,-211.7645 167,4 -4,4"/>
<!-- = -->
<g id="node1" class="node">
<title>=</title>
<ellipse fill="none" stroke="#000000" cx="63" cy="-185.1371" rx="27" ry="22.7556"/>
<text text-anchor="middle" x="63" y="-179.5371" font-family="sans-serif" font-size="22.00" fill="#000000">=</text>
</g>
<!-- a -->
<g id="node2" class="node">
<title>a</title>
<ellipse fill="none" stroke="#000000" cx="27" cy="-103.8823" rx="27" ry="22.7556"/>
<text text-anchor="middle" x="27" y="-98.2823" font-family="sans-serif" font-size="22.00" fill="#000000">a</text>
</g>
<!-- =&#45;&gt;a -->
<g id="edge1" class="edge">
<title>=&#45;&gt;a</title>
<path fill="none" stroke="#000000" d="M53.5414,-163.7883C49.6041,-154.9015 44.957,-144.4125 40.6606,-134.7153"/>
<polygon fill="#000000" stroke="#000000" points="43.7712,-133.0956 36.5204,-125.3705 37.3712,-135.9312 43.7712,-133.0956"/>
</g>
<!-- + -->
<g id="node3" class="node">
<title>+</title>
<ellipse fill="none" stroke="#000000" cx="99" cy="-103.8823" rx="27" ry="22.7556"/>
<text text-anchor="middle" x="99" y="-98.2823" font-family="sans-serif" font-size="22.00" fill="#000000">+</text>
</g>
<!-- =&#45;&gt;+ -->
<g id="edge2" class="edge">
<title>=&#45;&gt;+</title>
<path fill="none" stroke="#000000" d="M72.4586,-163.7883C76.3959,-154.9015 81.043,-144.4125 85.3394,-134.7153"/>
<polygon fill="#000000" stroke="#000000" points="88.6288,-135.9312 89.4796,-125.3705 82.2288,-133.0956 88.6288,-135.9312"/>
</g>
<!-- 40 -->
<g id="node4" class="node">
<title>40</title>
<ellipse fill="none" stroke="#000000" cx="62" cy="-22.6274" rx="28.9828" ry="22.7556"/>
<text text-anchor="middle" x="62" y="-17.0274" font-family="sans-serif" font-size="22.00" fill="#000000">40</text>
</g>
<!-- +&#45;&gt;40 -->
<g id="edge3" class="edge">
<title>+&#45;&gt;40</title>
<path fill="none" stroke="#000000" d="M89.2787,-82.5335C85.232,-73.6467 80.4558,-63.1577 76.04,-53.4604"/>
<polygon fill="#000000" stroke="#000000" points="79.1144,-51.7661 71.7849,-44.1157 72.7438,-54.6671 79.1144,-51.7661"/>
</g>
<!-- 2 -->
<g id="node5" class="node">
<title>2</title>
<ellipse fill="none" stroke="#000000" cx="136" cy="-22.6274" rx="27" ry="22.7556"/>
<text text-anchor="middle" x="136" y="-17.0274" font-family="sans-serif" font-size="22.00" fill="#000000">2</text>
</g>
<!-- +&#45;&gt;2 -->
<g id="edge4" class="edge">
<title>+&#45;&gt;2</title>
<path fill="none" stroke="#000000" d="M108.7213,-82.5335C112.8001,-73.5761 117.6201,-62.9911 122.065,-53.2297"/>
<polygon fill="#000000" stroke="#000000" points="125.3847,-54.3849 126.3436,-43.8336 119.0141,-51.484 125.3847,-54.3849"/>
</g>
</g>
</svg>
